<?xml version="1.0" standalone="no"?>
<!DOCTYPE svg PUBLIC "-//W3C//DTD SVG 20010904//EN"
 "http://www.w3.org/TR/2001/REC-SVG-20010904/DTD/svg10.dtd">
<svg version="1.0" xmlns="http://www.w3.org/2000/svg"
 width="256.000000pt" height="256.000000pt" viewBox="0 0 256.000000 256.000000"
 preserveAspectRatio="xMidYMid meet">

<g transform="translate(0.000000,256.000000) scale(0.100000,-0.100000)"
fill="#000000" stroke="none">
<path d="M21 2546 c-8 -10 -11 -326 -9 -1198 l3 -1185 30 -49 c19 -30 49 -60
79 -79 l49 -30 1107 0 1107 0 49 30 c30 19 60 49 79 79 l30 49 3 666 c2 619 1
667 -15 678 -12 10 -82 13 -265 13 l-248 0 0 508 c0 382 -3 511 -12 520 -19
19 -1971 17 -1987 -2z m1929 -1266 l0 -1200 -883 2 -882 3 -33 23 c-72 52 -67
-42 -70 1230 l-2 1142 935 0 935 0 0 -1200z m525 -466 l0 -620 -27 -41 c-43
-65 -71 -73 -262 -73 l-166 0 0 680 0 680 228 -2 227 -3 0 -621z"/>
<path d="M318 2231 l-33 -29 -3 -284 c-2 -255 -1 -286 15 -318 10 -19 29 -40
43 -47 36 -18 1304 -18 1340 0 14 7 33 28 43 47 16 32 17 63 15 318 l-3 284
-33 29 -32 29 -660 0 -660 0 -32 -29z m1337 -331 l0 -275 -645 0 -645 0 -3
265 c-1 146 0 270 3 277 3 11 134 13 647 11 l643 -3 0 -275z"/>
<path d="M278 1309 c-22 -13 -23 -55 -2 -63 9 -3 341 -6 738 -6 548 0 725 3
734 12 18 18 14 46 -7 58 -27 14 -1439 13 -1463 -1z"/>
<path d="M276 1007 c-11 -8 -17 -23 -14 -38 l3 -24 745 0 745 0 3 24 c8 52 22
51 -748 51 -574 0 -720 -3 -734 -13z"/>
<path d="M264 696 c-3 -8 -4 -23 -2 -33 3 -17 38 -18 748 -18 l745 0 0 30 0
30 -743 3 c-641 2 -743 0 -748 -12z"/>
<path d="M267 403 c-14 -13 -6 -53 12 -63 13 -7 261 -10 733 -10 768 0 754 -1
746 51 l-3 24 -741 3 c-407 1 -744 -1 -747 -5z"/>
</g>
</svg>
