<?xml version="1.0" standalone="no"?>
<!DOCTYPE svg PUBLIC "-//W3C//DTD SVG 20010904//EN"
 "http://www.w3.org/TR/2001/REC-SVG-20010904/DTD/svg10.dtd">
<svg version="1.0" xmlns="http://www.w3.org/2000/svg"
 width="256.000000pt" height="256.000000pt" viewBox="0 0 256.000000 256.000000"
 preserveAspectRatio="xMidYMid meet">

<g transform="translate(0.000000,256.000000) scale(0.100000,-0.100000)"
fill="#000000" stroke="none">
<path d="M595 2471 c-38 -17 -67 -58 -72 -105 l-5 -44 -152 -4 c-138 -3 -154
-5 -189 -27 -21 -13 -50 -42 -65 -64 l-27 -41 0 -985 0 -986 24 -38 c13 -21
42 -50 64 -65 l41 -27 1065 0 1066 0 38 24 c21 13 50 42 65 64 l27 41 0 986 0
986 -27 41 c-15 22 -44 51 -65 64 -35 22 -51 24 -189 27 l-152 4 -5 45 c-7 68
-51 108 -117 108 -66 0 -110 -40 -117 -109 l-6 -46 -197 0 -197 0 -6 46 c-7
69 -51 109 -117 109 -66 0 -110 -40 -117 -109 l-6 -46 -197 0 -197 0 -6 46
c-6 60 -47 104 -103 110 -21 2 -48 0 -59 -5z m74 -85 c8 -9 11 -58 9 -151 -3
-119 -5 -139 -20 -149 -13 -8 -23 -8 -35 0 -16 10 -18 30 -21 149 -3 142 3
165 38 165 10 0 23 -6 29 -14z m640 0 c8 -9 11 -58 9 -151 -3 -119 -5 -139
-20 -149 -13 -8 -23 -8 -35 0 -16 10 -18 30 -21 149 -3 142 3 165 38 165 10 0
23 -6 29 -14z m640 0 c8 -9 11 -58 9 -151 -3 -119 -5 -139 -20 -149 -13 -8
-23 -8 -35 0 -16 10 -18 30 -21 149 -3 142 3 165 38 165 10 0 23 -6 29 -14z
m-1428 -231 c4 -80 6 -86 37 -117 28 -28 39 -33 82 -33 43 0 54 5 82 33 31 31
33 37 37 117 l3 85 198 0 198 0 3 -85 c4 -80 6 -86 37 -117 28 -28 39 -33 82
-33 43 0 54 5 82 33 31 31 33 37 37 117 l3 85 198 0 198 0 3 -85 c4 -80 6 -86
37 -117 28 -28 39 -33 82 -33 43 0 54 5 82 33 31 31 33 37 37 118 l3 85 144
-3 144 -3 32 -33 33 -32 3 -165 3 -165 -1121 0 -1121 0 3 164 c3 159 4 165 28
191 37 40 53 44 196 44 l132 1 3 -85z m1877 -1160 l-3 -765 -33 -32 -32 -33
-1050 0 -1050 0 -32 33 -33 32 -3 765 -2 765 1120 0 1120 0 -2 -765z"/>
<path d="M1493 1548 c-6 -7 -31 -56 -56 -109 l-44 -96 -103 -13 c-158 -21
-164 -38 -51 -154 l79 -81 -19 -109 c-19 -112 -15 -146 17 -146 8 0 58 23 112
51 l97 51 90 -51 c50 -28 98 -51 107 -51 34 0 38 32 19 146 l-19 109 79 81
c43 45 79 89 79 97 0 31 -29 44 -130 57 l-102 14 -52 105 c-38 79 -56 107 -72
109 -11 2 -25 -3 -31 -10z m67 -201 c34 -70 36 -72 80 -80 25 -5 60 -12 78
-15 l33 -7 -56 -63 -57 -62 11 -63 c18 -105 20 -103 -58 -60 l-70 38 -70 -38
c-80 -43 -78 -46 -60 60 l11 63 -58 62 -57 63 34 7 c19 3 54 10 79 15 44 8 46
10 80 80 19 40 37 72 40 72 3 0 21 -32 40 -72z"/>
<path d="M812 1468 c-16 -16 -16 -200 0 -216 16 -16 200 -16 216 0 16 16 16
200 0 216 -8 8 -47 12 -108 12 -61 0 -100 -4 -108 -12z m148 -108 l0 -40 -40
0 -40 0 0 40 0 40 40 0 40 0 0 -40z"/>
<path d="M2012 1468 c-8 -8 -12 -47 -12 -108 0 -61 4 -100 12 -108 16 -16 200
-16 216 0 16 16 16 200 0 216 -8 8 -47 12 -108 12 -61 0 -100 -4 -108 -12z
m148 -108 l0 -40 -40 0 -40 0 0 40 0 40 40 0 40 0 0 -40z"/>
<path d="M412 1068 c-16 -16 -16 -200 0 -216 16 -16 200 -16 216 0 16 16 16
200 0 216 -16 16 -200 16 -216 0z m148 -108 l0 -40 -40 0 -40 0 0 40 0 40 40
0 40 0 0 -40z"/>
<path d="M812 1068 c-16 -16 -16 -200 0 -216 16 -16 200 -16 216 0 16 16 16
200 0 216 -16 16 -200 16 -216 0z m148 -108 l0 -40 -40 0 -40 0 0 40 0 40 40
0 40 0 0 -40z"/>
<path d="M2012 1068 c-8 -8 -12 -47 -12 -108 0 -61 4 -100 12 -108 16 -16 200
-16 216 0 16 16 16 200 0 216 -16 16 -200 16 -216 0z m148 -108 l0 -40 -40 0
-40 0 0 40 0 40 40 0 40 0 0 -40z"/>
<path d="M412 668 c-16 -16 -16 -200 0 -216 16 -16 200 -16 216 0 16 16 16
200 0 216 -16 16 -200 16 -216 0z m148 -108 l0 -40 -40 0 -40 0 0 40 0 40 40
0 40 0 0 -40z"/>
<path d="M812 668 c-16 -16 -16 -200 0 -216 16 -16 200 -16 216 0 16 16 16
200 0 216 -16 16 -200 16 -216 0z m148 -108 l0 -40 -40 0 -40 0 0 40 0 40 40
0 40 0 0 -40z"/>
<path d="M1212 668 c-16 -16 -16 -200 0 -216 16 -16 200 -16 216 0 16 16 16
200 0 216 -16 16 -200 16 -216 0z m148 -108 l0 -40 -40 0 -40 0 0 40 0 40 40
0 40 0 0 -40z"/>
<path d="M1612 668 c-8 -8 -12 -47 -12 -108 0 -61 4 -100 12 -108 16 -16 200
-16 216 0 16 16 16 200 0 216 -16 16 -200 16 -216 0z m148 -108 l0 -40 -40 0
-40 0 0 40 0 40 40 0 40 0 0 -40z"/>
<path d="M2012 668 c-8 -8 -12 -47 -12 -108 0 -61 4 -100 12 -108 16 -16 200
-16 216 0 16 16 16 200 0 216 -16 16 -200 16 -216 0z m148 -108 l0 -40 -40 0
-40 0 0 40 0 40 40 0 40 0 0 -40z"/>
</g>
</svg>
