<?xml version="1.0" standalone="no"?>
<!DOCTYPE svg PUBLIC "-//W3C//DTD SVG 20010904//EN"
 "http://www.w3.org/TR/2001/REC-SVG-20010904/DTD/svg10.dtd">
<svg version="1.0" xmlns="http://www.w3.org/2000/svg"
 width="128.000000pt" height="128.000000pt" viewBox="0 0 128.000000 128.000000"
 preserveAspectRatio="xMidYMid meet">

<g transform="translate(0.000000,128.000000) scale(0.100000,-0.100000)"
fill="#000000" stroke="none">
<path d="M1036 1184 c-3 -9 -6 -37 -6 -63 0 -77 -9 -81 -189 -81 l-153 0 -34
-34 c-19 -19 -34 -44 -34 -58 -1 -15 -12 -30 -33 -43 -21 -13 -37 -35 -47 -63
-16 -47 -36 -54 -66 -21 -54 60 -149 69 -234 23 -220 -120 -307 -547 -143
-706 45 -44 79 -58 139 -58 62 0 105 21 168 80 l53 50 183 0 183 0 53 -50 c63
-60 106 -80 169 -80 63 0 105 20 148 70 185 216 6 720 -257 722 -55 1 -99 -17
-130 -51 -30 -33 -50 -26 -66 21 -10 28 -26 50 -47 63 -24 15 -31 25 -26 40
11 40 31 45 180 45 202 0 233 19 233 142 0 60 -2 68 -19 68 -10 0 -22 -7 -25
-16z m-354 -331 c10 -9 18 -24 18 -35 0 -15 -8 -18 -60 -18 -65 0 -72 8 -44
48 18 26 60 29 86 5z m-275 -42 c23 -11 46 -29 53 -40 10 -20 19 -21 178 -21
l167 0 28 29 c92 98 238 36 326 -139 49 -98 65 -171 59 -276 -12 -232 -175
-311 -324 -157 l-41 43 -212 0 -213 0 -43 -44 c-54 -56 -96 -78 -150 -78 -173
-3 -233 287 -108 524 54 103 141 174 218 177 11 0 39 -8 62 -18z"/>
<path d="M250 685 c0 -45 0 -45 -34 -45 -61 0 -66 -6 -66 -75 0 -69 5 -75 66
-75 34 0 34 0 34 -45 l0 -46 68 3 67 3 3 43 c3 41 4 42 41 42 49 0 61 14 61
75 0 61 -12 75 -61 75 -37 0 -38 1 -41 43 l-3 42 -67 3 -68 3 0 -46z m92 -42
l3 -48 48 -3 c42 -3 47 -6 47 -27 0 -21 -5 -24 -47 -27 l-48 -3 -3 -48 c-3
-43 -5 -48 -25 -45 -19 3 -22 10 -25 51 l-3 47 -45 0 c-40 0 -44 2 -44 25 0
23 4 25 45 25 l45 0 0 43 c0 48 5 57 31 57 14 0 19 -10 21 -47z"/>
<path d="M885 705 c-28 -27 -31 -45 -14 -78 16 -30 28 -37 65 -37 62 0 89 75
44 120 -27 27 -66 25 -95 -5z m71 -36 c3 -6 0 -17 -7 -25 -18 -17 -44 -2 -36
20 7 18 33 21 43 5z"/>
<path d="M767 592 c-25 -28 -22 -87 5 -106 34 -24 73 -20 97 10 12 15 21 34
21 44 0 10 -9 29 -21 44 -25 32 -77 36 -102 8z m73 -47 c0 -9 -7 -18 -16 -22
-18 -7 -39 11 -30 26 11 17 46 13 46 -4z"/>
<path d="M1000 590 c-27 -27 -26 -74 2 -100 45 -42 118 -12 118 50 0 38 -32
70 -70 70 -17 0 -39 -9 -50 -20z m70 -50 c0 -13 -7 -20 -20 -20 -13 0 -20 7
-20 20 0 13 7 20 20 20 13 0 20 -7 20 -20z"/>
<path d="M898 485 c-51 -28 -43 -112 12 -130 31 -10 77 13 88 43 22 63 -41
118 -100 87z m52 -50 c13 -16 6 -35 -15 -35 -18 0 -28 17 -21 35 7 19 20 19
36 0z"/>
<path d="M501 371 c-8 -5 -11 -16 -8 -25 7 -18 91 -23 102 -6 18 30 -57 54
-94 31z"/>
<path d="M693 369 c-22 -22 -2 -39 43 -39 47 0 71 23 43 41 -20 12 -73 11 -86
-2z"/>
</g>
</svg>
