<?xml version="1.0" standalone="no"?>
<!DOCTYPE svg PUBLIC "-//W3C//DTD SVG 20010904//EN"
 "http://www.w3.org/TR/2001/REC-SVG-20010904/DTD/svg10.dtd">
<svg version="1.0" xmlns="http://www.w3.org/2000/svg"
 width="256.000000pt" height="256.000000pt" viewBox="0 0 256.000000 256.000000"
 preserveAspectRatio="xMidYMid meet">

<g transform="translate(0.000000,256.000000) scale(0.100000,-0.100000)"
fill="#000000" stroke="none">
<path d="M620 2520 l0 -40 -40 0 -40 0 0 -46 0 -45 38 3 c36 3 37 4 40 46 3
42 3 42 42 42 39 0 39 0 42 -42 3 -42 4 -43 41 -46 l37 -3 0 45 0 46 -40 0
-40 0 0 40 0 40 -40 0 -40 0 0 -40z"/>
<path d="M1191 2543 c-64 -23 -127 -92 -147 -160 -22 -77 -15 -203 14 -260
l22 -42 -59 -36 c-75 -45 -162 -138 -195 -210 -56 -118 -50 -254 15 -322 45
-47 86 -63 159 -63 l60 0 -50 -62 c-28 -34 -60 -87 -71 -118 -25 -64 -35 -186
-21 -249 l10 -43 -256 -397 -257 -396 -3 453 -2 454 26 31 c39 46 56 94 56
157 0 218 -258 329 -415 177 -92 -90 -101 -227 -22 -331 l25 -33 0 -546 0
-547 1200 0 1200 0 0 547 0 546 26 34 c84 110 64 269 -45 348 -106 78 -238 67
-328 -27 -43 -45 -65 -101 -65 -168 0 -63 17 -111 56 -157 l26 -31 -2 -454 -3
-453 -257 396 -256 397 10 43 c14 62 4 184 -21 249 -11 31 -43 84 -71 118
l-50 62 60 0 c73 0 114 16 159 63 65 68 71 204 15 322 -33 71 -120 165 -195
211 l-58 36 21 42 c26 50 36 173 19 243 -35 144 -191 227 -330 176z m159 -85
c56 -29 85 -72 94 -138 20 -151 -46 -252 -165 -252 -90 0 -151 58 -163 156 -9
72 1 139 28 179 24 36 96 77 136 77 14 0 46 -10 70 -22z m-135 -465 c47 -17
119 -12 165 12 30 15 33 15 92 -17 128 -68 207 -178 216 -299 8 -118 -33 -159
-160 -159 l-73 0 78 50 c77 49 92 71 65 98 -8 8 -47 12 -109 12 l-97 0 -39 97
c-61 151 -85 151 -146 0 l-39 -97 -97 0 c-62 0 -101 -4 -109 -12 -27 -27 -12
-49 66 -98 l77 -50 -73 0 c-127 0 -168 41 -160 159 6 83 42 157 107 220 55 53
159 113 181 104 8 -3 33 -12 55 -20z m97 -323 c26 -60 26 -60 69 -60 l44 0
-39 -26 c-36 -25 -38 -29 -33 -68 3 -22 8 -50 13 -61 6 -16 -1 -13 -33 13 -22
17 -46 32 -53 32 -7 0 -31 -15 -53 -32 -32 -26 -39 -29 -33 -13 5 11 10 39 13
61 5 39 3 43 -33 68 l-39 26 44 0 c43 0 43 0 69 60 15 33 29 60 32 60 3 0 17
-27 32 -60z m-968 -255 c35 -23 66 -87 66 -135 0 -58 -38 -122 -85 -145 -154
-72 -303 88 -215 232 46 77 156 99 234 48z m2062 0 c55 -35 84 -118 64 -179
-24 -75 -81 -118 -155 -118 -126 0 -203 128 -146 241 42 82 156 109 237 56z
m-1048 -75 c87 -71 103 -74 129 -26 9 16 14 11 42 -45 54 -112 53 -135 -34
-544 -41 -198 -78 -368 -81 -378 -4 -13 -16 -17 -50 -17 l-44 0 0 334 0 334
29 5 c35 7 91 61 91 88 0 26 -53 26 -105 -1 -22 -11 -46 -20 -55 -20 -9 0 -33
9 -55 20 -52 27 -105 27 -105 1 0 -27 56 -81 91 -88 l29 -5 0 -334 0 -334 -44
0 c-34 0 -46 4 -50 18 -3 9 -40 179 -81 377 -87 409 -88 432 -34 544 28 56 33
61 42 45 26 -48 42 -45 129 26 40 33 75 60 78 60 3 0 38 -27 78 -60z m-1028
-775 l0 -485 -80 0 -80 0 0 480 0 481 48 -6 c38 -5 64 -1 110 14 1 1 2 -217 2
-484z m2017 470 l43 6 0 -480 0 -481 -80 0 -80 0 0 484 0 484 37 -10 c20 -5
56 -7 80 -3z m-1339 -437 c29 -139 52 -256 52 -260 0 -4 -50 -9 -111 -10
l-112 -3 -41 -120 -41 -120 -153 -3 c-122 -2 -152 0 -146 10 30 54 489 758
493 758 4 0 30 -114 59 -252z m857 -133 l246 -380 -147 -3 c-81 -1 -151 1
-156 6 -4 4 -25 60 -46 123 l-39 114 -111 3 c-62 1 -112 6 -112 10 -1 26 106
512 112 510 4 -2 118 -174 253 -383z m-174 -302 l28 -83 -439 0 -439 0 25 73
c13 39 26 78 29 85 3 10 86 12 386 10 l382 -3 28 -82z"/>
<path d="M620 2350 l0 -40 40 0 40 0 0 40 0 40 -40 0 -40 0 0 -40z"/>
<path d="M2270 2350 l0 -40 -40 0 -40 0 0 -40 0 -40 40 0 40 0 0 -40 0 -40 40
0 40 0 0 40 0 40 45 0 45 0 0 40 0 40 -45 0 -45 0 0 40 0 40 -40 0 -40 0 0
-40z m80 -80 l0 -40 -40 0 -40 0 0 40 0 40 40 0 40 0 0 -40z"/>
<path d="M80 2191 l0 -41 -40 0 -40 0 0 -45 0 -45 40 0 40 0 0 -41 0 -40 43 3
c41 3 42 4 45 40 3 35 5 37 40 40 36 3 37 4 40 46 l3 42 -40 0 c-39 0 -40 1
-43 38 -3 36 -4 37 -45 40 l-43 3 0 -40z m90 -86 l0 -45 -45 0 -45 0 0 45 0
45 45 0 45 0 0 -45z"/>
<path d="M1940 2020 l0 -40 -40 0 -40 0 0 -40 0 -40 40 0 40 0 0 -40 0 -40 40
0 40 0 0 40 0 40 45 0 45 0 0 40 0 40 -45 0 -45 0 0 40 0 40 -40 0 -40 0 0
-40z m80 -80 l0 -40 -40 0 -40 0 0 40 0 40 40 0 40 0 0 -40z"/>
<path d="M370 1810 l0 -40 -40 0 -40 0 0 -40 0 -40 40 0 40 0 0 -40 0 -40 40
0 40 0 0 40 0 40 45 0 45 0 0 40 0 40 -45 0 -45 0 0 40 0 40 -40 0 -40 0 0
-40z m80 -80 l0 -40 -40 0 -40 0 0 40 0 40 40 0 40 0 0 -40z"/>
</g>
</svg>
