<?xml version="1.0" standalone="no"?>
<!DOCTYPE svg PUBLIC "-//W3C//DTD SVG 20010904//EN"
 "http://www.w3.org/TR/2001/REC-SVG-20010904/DTD/svg10.dtd">
<svg version="1.0" xmlns="http://www.w3.org/2000/svg"
 width="256.000000pt" height="256.000000pt" viewBox="0 0 256.000000 256.000000"
 preserveAspectRatio="xMidYMid meet">

<g transform="translate(0.000000,256.000000) scale(0.100000,-0.100000)"
fill="#000000" stroke="none">
<path d="M452 2540 c-108 -29 -187 -75 -273 -160 -238 -237 -238 -604 0 -840
87 -87 164 -131 277 -160 141 -36 294 -18 427 52 80 42 203 164 242 240 l30
58 581 0 c348 0 603 4 635 10 30 6 72 23 94 38 52 36 95 118 95 182 0 65 -43
145 -99 185 l-43 30 -628 3 -629 2 -33 63 c-48 92 -164 205 -258 251 -135 66
-281 82 -418 46z m240 -141 c87 -18 158 -58 224 -123 179 -180 179 -452 0
-632 -113 -112 -255 -155 -408 -123 -232 49 -390 279 -350 510 44 253 286 420
534 368z m1400 -386 c26 -23 24 -84 -3 -109 -20 -18 -45 -19 -455 -22 l-434
-3 0 76 0 75 437 0 c392 0 438 -2 455 -17z m298 -5 c53 -57 0 -128 -96 -128
l-34 0 0 75 0 75 55 0 c43 0 58 -5 75 -22z"/>
<path d="M405 2188 c-50 -27 -60 -80 -22 -116 47 -44 127 -11 127 52 0 22 -33
66 -50 66 -4 0 -14 2 -22 5 -7 2 -22 0 -33 -7z"/>
<path d="M739 2189 c-25 -9 -49 -45 -49 -73 0 -7 9 -25 21 -40 53 -67 154 -2
123 79 -5 13 -56 47 -66 44 -2 0 -15 -5 -29 -10z"/>
<path d="M770 1902 c-8 -2 -34 -24 -57 -48 -72 -73 -152 -73 -224 1 -50 51
-94 60 -129 25 -58 -58 24 -173 153 -216 109 -36 245 5 315 95 35 46 41 84 17
118 -15 21 -49 33 -75 25z"/>
<path d="M452 1180 c-109 -29 -187 -74 -272 -160 -87 -86 -131 -163 -160 -276
-25 -98 -25 -190 0 -288 29 -114 73 -190 160 -277 188 -187 450 -230 690 -113
94 46 210 159 258 251 l33 63 629 2 628 3 43 30 c56 40 99 120 99 185 0 64
-43 146 -95 182 -22 15 -64 32 -94 38 -32 6 -287 10 -635 10 l-581 0 -30 58
c-39 76 -162 198 -242 240 -132 69 -291 88 -431 52z m247 -141 c79 -18 154
-61 217 -123 258 -258 117 -696 -245 -758 -239 -41 -471 126 -513 371 -38 225
105 444 330 506 58 16 152 18 211 4z m840 -383 c26 -23 28 -81 4 -108 -14 -16
-34 -18 -180 -18 l-163 0 0 76 0 76 159 -4 c139 -3 162 -5 180 -22z m817 14
c55 -21 71 -78 34 -118 -21 -22 -24 -22 -353 -22 l-332 0 2 72 c1 40 2 74 3
76 1 8 623 0 646 -8z"/>
<path d="M403 830 c-72 -29 -45 -140 34 -140 32 0 73 37 73 66 0 26 -23 62
-47 73 -28 13 -30 13 -60 1z"/>
<path d="M734 829 c-22 -11 -44 -48 -44 -73 0 -7 9 -25 21 -40 40 -51 129 -20
129 46 0 52 -60 89 -106 67z"/>
<path d="M547 589 c-61 -9 -126 -48 -171 -101 -43 -50 -48 -93 -13 -126 37
-35 72 -28 121 22 50 52 99 69 153 54 21 -6 55 -28 79 -54 50 -51 88 -58 122
-21 34 36 29 77 -18 130 -68 77 -167 112 -273 96z"/>
</g>
</svg>
